<?xml version="1.0" encoding="UTF-8"?>
<svg width="220px" height="220px" viewBox="0 0 220 220" version="1.1" xmlns="http://www.w3.org/2000/svg" xmlns:xlink="http://www.w3.org/1999/xlink">
    <!-- Generator: Sketch 52.5 (67469) - http://www.bohemiancoding.com/sketch -->
    <title>Artboard</title>
    <desc>Created with Sketch.</desc>
    <defs>
        <linearGradient x1="38.5078482%" y1="20.9756233%" x2="50%" y2="100%" id="linearGradient-1">
            <stop stop-color="#2C2F3E" offset="0%"></stop>
            <stop stop-color="#111111" offset="100%"></stop>
        </linearGradient>
    </defs>
    <g id="Artboard" stroke="none" stroke-width="1" fill="none" fill-rule="evenodd">
        <g id="Group-20" transform="translate(14.000000, 44.000000)">
            <g id="Group-13">
                <polygon id="Path-23" stroke="#111111" stroke-width="3" points="185.935606 53.2321565 47.0265152 133 17.3636364 88.765105 17.3636364 76.4373473 163.507576 4.64628821 191 39.4540745"></polygon>
                <polyline id="Path-26" stroke="#111111" stroke-width="3" points="191 38.9126638 46.9060352 119.641921 17.9424242 76.0044848"></polyline>
                <path d="M47.1712121,133 L47.1712121,119.641921" id="Path-27" stroke="#111111" stroke-width="3"></path>
                <polygon id="Path-28" stroke="#00A8FF" stroke-width="3" points="50.3545455 77.2445415 62.3846786 94.6681223 129.069697 59.0949782 117.472302 42.3973799"></polygon>
                <path d="M2.1677681,41.2676318 C100.921648,48.9902295 153.429809,52.8515284 159.69225,52.8515284 C169.085912,52.8515284 181.369931,49.9555542 182.81511,31.8557157 C184.260288,13.7558773 166.195554,10.1359096 158.247071,9.41191601 C150.298588,8.68792247 15.1743767,0 10.8388405,0 C7.94848302,0 6.26244117,1.93064944 5.78071493,5.79194832 L0,42.7156188 L2.1677681,41.2676318 Z" id="Path-29" fill="url(#linearGradient-1)"></path>
                <path d="M2,40.9781659 C2,50.657933 2.96185039,55.4978166 4.88555116,55.4978166 C6.80925194,55.4978166 21.7726541,57.13246 49.7757576,60.4017467" id="Path-30" stroke="#111111" stroke-width="3"></path>
                <ellipse id="Oval" stroke="#FFFFFF" stroke-width="3" cx="156.562121" cy="31.6528384" rx="12.4439394" ry="11.9061135"></ellipse>
            </g>
            <path d="M36,109 L29,97" id="Path-31" stroke="#111111" stroke-width="3"></path>
            <path d="M25.4513334,12.1344201 L25.0150368,15.518287 L20.4914146,15.1728954 L20.6420183,14.0449397 C20.8089242,12.7990343 22.2413784,11.888438 23.8413912,12.011066 L25.4513334,12.1344201 Z M28.0281821,12.3317868 L37.2594876,13.0381161 C38.9295662,13.1657835 40.1501894,14.4522305 39.9850333,15.9114759 L39.0651049,23.984857 L26.6842974,23.0473654 L28.0281821,12.3317868 Z M38.7418757,26.8047461 L38.612385,27.9327018 C38.4692438,29.1786072 37.1804865,30.100249 35.7341238,29.9912464 L34.4248497,29.892563 L34.8221061,26.5086961 L38.7418757,26.8047461 Z M30.4979602,29.5965131 L26.5724928,29.3004631 L26.9874531,25.9165961 L30.9039553,26.2126461 L30.4979602,29.5965131 Z M23.302378,29.0537547 L21.6677041,28.9304006 C20.0429106,28.8077726 18.8547663,27.6983572 19.0143707,26.4524518 L19.1595135,25.3244962 L23.724982,25.6698878 L23.302378,29.0537547 Z M19.5985089,21.9406292 L20.0425895,18.5567623 L24.5816522,18.902154 L24.1515203,22.2860209 L19.5985089,21.9406292 Z" id="Shape" fill="#FFFFFF"></path>
        </g>
    </g>
</svg>