<?xml version="1.0" encoding="UTF-8"?>
<svg width="220px" height="220px" viewBox="0 0 220 220" version="1.1" xmlns="http://www.w3.org/2000/svg" xmlns:xlink="http://www.w3.org/1999/xlink">
    <!-- Generator: Sketch 52.5 (67469) - http://www.bohemiancoding.com/sketch -->
    <title>Artboard</title>
    <desc>Created with Sketch.</desc>
    <g id="Artboard" stroke="none" stroke-width="1" fill="none" fill-rule="evenodd">
        <circle id="Oval-Copy-3" stroke="#00A8FF" stroke-width="3" cx="110" cy="110" r="64"></circle>
        <g id="Group-5" transform="translate(81.000000, 81.000000)">
            <g id="Group-2">
                <path d="M14.2671466,0.11539474 L9.7604828,7.36315203 C23.9107756,8.53525427 34.07323,12.8011285 40.2478461,20.1607747 C46.4224622,27.5204209 49.9877735,37.1421609 50.9437801,49.0259949 L57.7694576,44.3197894 C56.0486458,33.6877015 51.6176949,24.161111 44.476605,15.740018 C37.3355151,7.31892508 27.2656957,2.11071732 14.2671466,0.11539474 Z" id="Path-2" stroke="#111111" stroke-width="3" fill="#FFFFFF" stroke-linecap="round" stroke-linejoin="round"></path>
                <polygon id="Path-4-Copy-2" fill="#000000" opacity="0.220926339" transform="translate(50.882745, 34.605526) rotate(240.000000) translate(-50.882745, -34.605526) " points="48.5608648 31.2645411 51.6570573 30.1053749 53.2046247 39.1056771 49.5716515 38.4876874"></polygon>
                <path d="M14.0477686,10.4936474 L9.4959169,17.6694536 C23.7880932,18.82992 34.0524456,23.0534453 40.288974,30.3400297 C46.5255023,37.626614 50.1265627,47.1528356 51.0921551,58.9186944 L57.986273,54.2592092 C56.2482067,43.7326698 51.7728272,34.3006532 44.5601343,25.9631595 C37.3474414,17.6256657 27.1766528,12.4691617 14.0477686,10.4936474 Z" id="Path-2-Copy" stroke="#111111" stroke-width="3" fill="#FFFFFF" stroke-linecap="round" stroke-linejoin="round" transform="translate(33.741095, 34.706171) rotate(90.000000) translate(-33.741095, -34.706171) "></path>
                <polygon id="Path-4-Copy" fill="#000000" opacity="0.145200893" transform="translate(34.350415, 10.567544) rotate(90.000000) translate(-34.350415, -10.567544) " points="32.988545 7.83089136 34.4747415 5.63141452 35.7122851 15.5036732 32.988545 12.3684123"></polygon>
                <polygon id="Path-4-Copy-3" fill="#000000" opacity="0.283091518" transform="translate(23.335432, 52.211490) rotate(90.000000) translate(-23.335432, -52.211490) " points="23.4289065 47.9884255 25.5088461 46.6836683 22.1680708 57.7393114 21.1620175 54.1588148"></polygon>
                <path d="M4.50666378,0 L0,7.24775729 C14.1502928,8.41985953 24.3127472,12.6857337 30.4873633,20.0453799 C36.6619794,27.4050261 40.2272907,37.0267662 41.1832973,48.9106002 L48.0089748,44.2043947 C46.288163,33.5723067 41.8572121,24.0457163 34.7161222,15.6246233 C27.5750323,7.20353034 17.5052129,1.99532258 4.50666378,0 Z" id="Path-2-Copy-3" stroke="#111111" stroke-width="3" fill="#FFFFFF" stroke-linecap="round" stroke-linejoin="round" transform="translate(24.004487, 24.455300) scale(-1, 1) translate(-24.004487, -24.455300) "></path>
                <path d="M4.51919713,10.4936474 L-0.0326545298,17.6694536 C14.2595218,18.82992 24.5238742,23.0534453 30.7604025,30.3400297 C36.9969309,37.626614 40.5979913,47.1528356 41.5635836,58.9186944 L48.4577015,54.2592092 C46.7196353,43.7326698 42.2442557,34.3006532 35.0315629,25.9631595 C27.81887,17.6256657 17.6480814,12.4691617 4.51919713,10.4936474 Z" id="Path-2-Copy-2" stroke="#111111" stroke-width="3" fill="#FFFFFF" stroke-linecap="round" stroke-linejoin="round" transform="translate(24.212524, 34.706171) scale(-1, 1) rotate(90.000000) translate(-24.212524, -34.706171) "></path>
                <polygon id="Path-4" fill="#000000" opacity="0.145200893" points="8.98138253 21.6283072 10.4528251 19.4067764 11.6780831 29.3780232 8.98138253 26.2113254"></polygon>
            </g>
        </g>
    </g>
</svg>