<?xml version="1.0" encoding="UTF-8"?>
<svg width="220px" height="220px" viewBox="0 0 220 220" version="1.1" xmlns="http://www.w3.org/2000/svg" xmlns:xlink="http://www.w3.org/1999/xlink">
    <!-- Generator: Sketch 52.5 (67469) - http://www.bohemiancoding.com/sketch -->
    <title>Artboard</title>
    <desc>Created with Sketch.</desc>
    <g id="Artboard" stroke="none" stroke-width="1" fill="none" fill-rule="evenodd">
        <g id="Group-21" transform="translate(0.000000, 55.000000)" stroke-width="3">
            <rect id="Rectangle" stroke="#00A8FF" x="1.5" y="102.177966" width="217" height="1"></rect>
            <path d="M3.72881356,62.9034635 C12.2080251,56.7497648 18.1119799,53.1830735 21.440678,52.2033898 C26.433725,50.7338643 29.8305085,52.2033898 40.0847458,52.2033898 C50.3389831,52.2033898 50.3389831,56.7855472 60.5932203,52.2033898 C70.8474576,47.6212325 71.779661,36.3559322 80.1694915,33.559322 C88.559322,30.7627119 88.559322,38.9093589 98.8135593,33.559322 C109.067797,28.2092852 113.37852,16.5715193 116.525424,14.9152542 C119.672327,13.2589892 125.847458,5.86268538 134.237288,5.86268538 C142.627119,5.86268538 143.09322,55.1838917 151.016949,55.1838917 C158.940678,55.1838917 158.940678,66.8136752 166.864407,66.8136752 C174.788136,66.8136752 175.720339,66.8136752 182.711864,66.8136752 C189.70339,66.8136752 190.169492,49.097259 196.694915,49.097259 C201.045198,49.097259 205.39548,49.097259 209.745763,49.097259" id="Path" stroke="#111111" opacity="0.2"></path>
            <path d="M3.72881356,62.9034635 C12.2080251,56.7497648 18.1119799,53.1830735 21.440678,52.2033898 C26.433725,50.7338643 29.8305085,52.2033898 40.0847458,52.2033898 C50.3389831,52.2033898 50.3389831,56.7855472 60.5932203,52.2033898 C70.8474576,47.6212325 71.779661,36.3559322 80.1694915,33.559322 C88.559322,30.7627119 88.559322,38.9093589 98.8135593,33.559322 C109.067797,28.2092852 113.37852,16.5715193 116.525424,14.9152542 C119.672327,13.2589892 125.847458,5.86268538 134.237288,5.86268538" id="Path-Copy" stroke="#111111"></path>
            <path d="M134.237288,5.86268538 C142.627119,5.86268538 143.09322,7.6415188 151.016949,7.6415188 C158.940678,7.6415188 158.940678,3.42384468 166.864407,3.42384468 C174.788136,3.42384468 175.720339,3.42384468 182.711864,3.42384468 C189.70339,3.42384468 190.169492,1.55488612 196.694915,1.55488612 C201.045198,1.55488612 205.39548,1.55488612 209.745763,1.55488612" id="Path-Copy-4" stroke="#00A8FF"></path>
            <circle id="Oval" stroke="#00A8FF" fill="#FFFFFF" cx="135.169492" cy="5.59322034" r="5.59322034"></circle>
            <circle id="Oval-Copy-6" stroke="#00A8FF" cx="135.169492" cy="5.59322034" r="1"></circle>
        </g>
    </g>
</svg>