<?xml version="1.0" encoding="UTF-8"?>
<svg width="220px" height="220px" viewBox="0 0 220 220" version="1.1" xmlns="http://www.w3.org/2000/svg" xmlns:xlink="http://www.w3.org/1999/xlink">
    <!-- Generator: Sketch 52.5 (67469) - http://www.bohemiancoding.com/sketch -->
    <title>Artboard</title>
    <desc>Created with Sketch.</desc>
    <defs>
        <linearGradient x1="38.5078482%" y1="20.9756233%" x2="50%" y2="100%" id="linearGradient-1">
            <stop stop-color="#2C2F3E" offset="0%"></stop>
            <stop stop-color="#111111" offset="100%"></stop>
        </linearGradient>
    </defs>
    <g id="Artboard" stroke="none" stroke-width="1" fill="none" fill-rule="evenodd">
        <g id="Group-18" transform="translate(24.000000, 20.000000)">
            <path d="M55,92 C55,108.568541 68.4314593,122 85,122 C101.568541,122 115,108.568541 115,92 C115,75.4314593 101.568541,62 85,62 C68.4314593,62 55,75.4314593 55,92 Z" id="Fill-1" fill="url(#linearGradient-1)"></path>
            <path d="M60.3475569,27 C52.4819101,30.100781 45.3266568,34.641721 39.1974299,40.3030838 M17.3025471,84.6769484 C17.1023655,86.8298859 17,89.0116515 17,91.2176366 C17,94.5853525 17.2385719,97.8966227 17.6995294,101.13505 M41.0378441,143.771917 C46.3664746,148.350562 52.4005464,152.112471 58.9516179,154.866752 M110.72915,155 C117.879634,152.03701 124.420937,147.875999 130.109881,142.763306 M152.401529,100.396798 C152.796251,97.3939118 153,94.3298775 153,91.2176366 C153,89.1624972 152.911155,87.1283782 152.737145,85.1190061 M131.70552,41.1523188 C125.576053,35.2824939 118.369151,30.5551987 110.416848,27.3067832" id="Shape" stroke="#00A8FF" stroke-width="3"></path>
            <path d="M130,60 C130,71.5979785 139.402022,81 151,81 C162.597978,81 172,71.5979785 172,60 C172,48.4020215 162.597978,39 151,39 C139.402022,39 130,48.4020215 130,60 Z" id="Fill-1-Copy" stroke="#00A8FF" stroke-width="3" stroke-linecap="round" stroke-linejoin="round"></path>
            <path d="M130,127 C130,138.597978 139.402022,148 151,148 C162.597978,148 172,138.597978 172,127 C172,115.402022 162.597978,106 151,106 C139.402022,106 130,115.402022 130,127 Z" id="Fill-1-Copy-4" stroke="#00A8FF" stroke-width="3" stroke-linecap="round" stroke-linejoin="round"></path>
            <path d="M65,160 C65,171.597978 74.4020215,181 86,181 C97.5979785,181 107,171.597978 107,160 C107,148.402022 97.5979785,139 86,139 C74.4020215,139 65,148.402022 65,160 Z" id="Fill-1-Copy-8" stroke="#00A8FF" stroke-width="3" stroke-linecap="round" stroke-linejoin="round"></path>
            <g id="Group-6-Copy" stroke="#00A8FF" stroke-linecap="round" stroke-linejoin="round" stroke-width="3">
                <path d="M0,59.8751403 C0,71.4167126 9.36425131,80.7730079 20.9156379,80.7730079 C32.4670244,80.7730079 41.8312757,71.4167126 41.8312757,59.8751403 C41.8312757,48.333568 32.4670244,38.9772727 20.9156379,38.9772727 C9.36425131,38.9772727 0,48.333568 0,59.8751403 Z" id="Fill-1-Copy"></path>
                <path d="M64.6458333,20.8978676 C64.6458333,32.4394399 74.0100846,41.7957351 85.5614712,41.7957351 C97.1128577,41.7957351 106.477109,32.4394399 106.477109,20.8978676 C106.477109,9.35629528 97.1128577,0 85.5614712,0 C74.0100846,0 64.6458333,9.35629528 64.6458333,20.8978676 Z" id="Fill-1-Copy-7"></path>
                <path d="M0,125.923401 C0,137.464973 9.36425131,146.821268 20.9156379,146.821268 C32.4670244,146.821268 41.8312757,137.464973 41.8312757,125.923401 C41.8312757,114.381828 32.4670244,105.025533 20.9156379,105.025533 C9.36425131,105.025533 0,114.381828 0,125.923401 Z" id="Fill-1-Copy-4"></path>
            </g>
            <path d="M84.2259643,108 C83.3475387,108 82.6146789,107.903027 82.0481799,107.712102 C81.4769853,107.519163 81.0258656,107.30542 80.7079017,107.075907 C80.3268817,106.80143 80.158173,106.596412 80.0833777,106.472931 C79.9934892,106.324284 79.9539114,106.244089 79.937812,106.207514 C79.9451909,106.022628 79.9918122,105.819623 80.0763342,105.602861 C80.1779619,105.342813 80.3057512,105.099542 80.4566834,104.879424 C80.6059386,104.662661 80.7662622,104.479453 80.9343001,104.335839 C81.0590707,104.2288 81.1298412,104.201286 81.1533195,104.194575 C81.1556674,104.20397 81.185183,104.237525 81.2237546,104.3147 L81.2583013,104.383822 L81.5306501,104.656621 C81.675545,104.802248 81.8667259,104.943513 82.1142547,105.088133 C82.3510506,105.227385 82.6445299,105.354221 82.9863076,105.465287 C83.3418368,105.581386 83.7590806,105.640442 84.2259643,105.640442 C85.2583407,105.640442 86.1193252,105.314627 86.7854395,104.673063 C87.4569202,104.026802 87.7973562,103.150356 87.7973562,102.067214 C87.7973562,101.319618 87.61825,100.639802 87.2647332,100.047899 C86.9303344,99.4885443 86.4882707,98.9630795 85.9502811,98.4862688 C85.428391,98.0245578 84.828687,97.5708998 84.1672684,97.137039 C83.5212785,96.7135802 82.8615369,96.2723374 82.1877084,95.8129751 C81.527296,95.3636793 80.8705731,94.8707624 80.2356516,94.3483176 C79.6221959,93.8443277 79.0694486,93.2564514 78.5918319,92.6007948 C78.1175693,91.950507 77.7284996,91.2032464 77.4363618,90.3801525 C77.1469074,89.5651116 77,88.6128325 77,87.5498233 C77,86.6418363 77.1586465,85.7127098 77.471244,84.7882811 C77.7875308,83.8527793 78.2306008,82.9491543 78.7883792,82.10123 C79.3495117,81.2489436 80.020657,80.4402781 80.7840387,79.6977151 C81.5460787,78.9561588 82.3825787,78.30218 83.270731,77.753227 C84.1548584,77.2072939 85.0892966,76.7730976 86.0485548,76.4627177 C86.9957384,76.1556933 87.9590214,76 88.9119069,76 C89.7098353,76 90.4346454,76.1268363 91.0665483,76.3764824 C91.6883891,76.6231086 92.2193351,76.9730829 92.6439578,77.4170101 C93.0709283,77.8636216 93.4066686,78.4112324 93.6414521,79.0440718 C93.8792542,79.6856355 94,80.417461 94,81.2197511 C94,81.9804335 93.8644964,82.7387671 93.5971787,83.473948 C93.3231528,84.2272484 92.9558844,84.9480009 92.5061063,85.6157371 C92.050291,86.2928686 91.5287363,86.9263791 90.9562001,87.4994914 C90.3809806,88.0749526 89.784966,88.579949 89.1852619,89.0007235 C88.5919306,89.4171359 88.0089967,89.7456353 87.4525599,89.9761553 C86.9246325,90.1952667 86.4637861,90.3066679 86.0831015,90.3066679 C85.777883,90.3066679 85.5149255,90.2395588 85.2791358,90.1023205 C85.0228865,89.9533382 84.8078919,89.7687879 84.6388478,89.5523609 C84.4604124,89.3245253 84.3202131,89.0822612 84.2229456,88.831944 C84.1441255,88.6312876 84.0988458,88.4531127 84.0864358,88.3001038 C84.1008582,88.3034593 84.1159515,88.3071503 84.1313801,88.3108413 C84.3108217,88.35614 84.5177666,88.3789571 84.7441649,88.3789571 C85.4310743,88.3789571 86.187077,88.1467594 86.9917135,87.6894104 C87.7607971,87.2518586 88.4926507,86.687135 89.16715,86.0120167 C89.8426556,85.3368985 90.4175397,84.5822559 90.8770445,83.7695639 C91.355332,82.9216396 91.5978297,82.0784129 91.5978297,81.2630365 C91.5978297,80.3990059 91.3741146,79.6977151 90.9320509,79.1779546 C90.4708691,78.6350415 89.7185558,78.3595583 88.6959061,78.3595583 C88.1015685,78.3595583 87.4518891,78.4729728 86.7646444,78.6967819 C86.0951761,78.9152222 85.4139686,79.2232533 84.7398047,79.612822 C84.0673177,80.0020552 83.4092532,80.4785303 82.783723,81.0298321 C82.1545033,81.5841538 81.5923646,82.2035715 81.1124001,82.8709721 C80.629417,83.5430705 80.2349808,84.2782514 79.9408306,85.0560466 C79.6406432,85.8499481 79.4883693,86.6884771 79.4883693,87.5498233 C79.4883693,88.4665345 79.6594259,89.3013726 79.9971787,90.0318559 C80.3268817,90.7455619 80.7699517,91.4025606 81.3139785,91.9847327 C81.8422413,92.551134 82.4516721,93.081632 83.1251652,93.5607915 C83.7711552,94.0204893 84.4433067,94.4848847 85.1228371,94.940556 C85.7912992,95.3885097 86.4530532,95.8562606 87.0899872,96.3307224 C87.7081385,96.7914268 88.267594,97.3058186 88.7535957,97.8601403 C89.2288646,98.4027179 89.6162573,99.0150891 89.9047055,99.6784632 C90.1861103,100.326738 90.3286574,101.086749 90.3286574,101.938029 C90.3286574,102.761123 90.1706817,103.551669 89.8597613,104.287856 C89.5474993,105.025722 89.1131498,105.675003 88.5701292,106.218923 C88.0261024,106.762842 87.3723981,107.201065 86.6267929,107.520505 C85.8848772,107.838602 85.0772221,108 84.2259643,108" id="Fill-4" fill="#FFFFFF"></path>
            <g id="Group-4" transform="translate(143.000000, 115.000000)" stroke="#111111" stroke-linecap="round" stroke-linejoin="round" stroke-width="2">
                <polygon id="Path-2" points="7.4962963 0 12.8507937 6.98784722 15.6444444 17.4696181 7.82222222 23 0 17.4696181 2.14179894 6.98784722"></polygon>
                <polyline id="Path-3" points="1.95555556 7.66666667 7.86567901 22.3611111 13.037037 7.66666667"></polyline>
            </g>
            <g id="iconfinder_BTC-alt_1175251" transform="translate(77.000000, 10.000000)" fill="#111111">
                <path d="M15.4205534,11.4345463 C14.6798684,10.8774802 13.6247475,10.654674 13.6247475,10.654674 C13.6247475,10.654674 14.517628,10.1377313 14.8824914,9.62129515 C15.2477607,9.10465639 15.4302939,8.30421586 15.4608344,7.88889868 C15.4911721,7.47337885 15.5622981,5.73115419 14.2027861,4.72837445 C13.1512164,3.95245374 11.9461322,3.64443612 10.3278877,3.54422907 L10.3278877,0.0281674009 L8.15697058,0.0281674009 L8.15697058,3.50268722 C7.67258292,3.50268722 7.10651698,3.50268722 6.5034168,3.50268722 L6.5034168,0.0281674009 L4.33270257,0.0281674009 L4.33270257,3.50268722 C2.11663408,3.50268722 0.0618928521,3.50268722 0.0618928521,3.50268722 L0.0618928521,5.75395154 C0.0618928521,5.75395154 0.974863152,5.75395154 1.31720165,5.75395154 C1.65943868,5.75395154 2.26811937,5.79194714 2.52675032,6.08101762 C2.78548273,6.3695815 2.8311414,6.5216652 2.8311414,7.08359471 C2.8311414,7.64572687 2.83124286,15.841326 2.83124286,16.0541013 C2.83124286,16.2667753 2.79065738,16.5300088 2.60792127,16.7023568 C2.42548956,16.8747048 2.24295637,16.9149295 1.80656103,16.9149295 C1.37026716,16.9149295 0.508231633,16.9149295 0.508231633,16.9149295 L0.0618928521,19.5186916 C0.0618928521,19.5186916 2.18431036,19.5186916 4.33270257,19.5186916 L4.33270257,22.9833833 L6.50351826,22.9833833 L6.50351826,19.5186916 C7.17054057,19.5186916 7.75131874,19.5186916 8.15707205,19.5186916 L8.15707205,22.9833833 L10.3279892,22.9833833 L10.3279892,19.4615463 C10.8891849,19.4288194 11.4124331,19.3863656 11.7176359,19.3464449 C12.3365644,19.2655903 13.7363575,19.1034758 15.0452392,18.1916828 C16.3537149,17.2797885 16.6476553,15.8513568 16.6781958,14.4129956 C16.7090408,12.974533 16.1605281,11.9917137 15.4205534,11.4345463 Z M6.5034168,5.95426432 C6.5034168,5.95426432 7.19316697,5.89357269 7.87287225,5.9035022 C8.55278045,5.91353304 9.15101037,5.93389868 10.0439923,6.20746696 C10.9365684,6.48113656 11.4636723,7.14975771 11.4843709,7.93996476 C11.5045622,8.73017181 11.1592812,9.25674009 10.5509049,9.59110132 C9.94232571,9.92536123 9.10078585,10.1077401 8.30916612,10.1378326 C7.51805372,10.1683304 6.5034168,10.1378326 6.5034168,10.1378326 L6.5034168,5.95426432 Z M11.362513,16.3173348 C10.8654424,16.5910044 9.87119966,16.8340749 8.90770044,16.9047974 C7.94389683,16.9758238 6.5034168,16.9454273 6.5034168,16.9454273 L6.5034168,12.2954758 C6.5034168,12.2954758 7.88312008,12.2247533 8.95853375,12.2954758 C10.0337445,12.3667048 10.9365684,12.6399692 11.3421188,12.8429163 C11.7478721,13.0453568 12.4582194,13.4909692 12.4582194,14.5548458 C12.4582194,15.6183172 11.8592792,16.0438678 11.362513,16.3173348 Z" id="BTC_alt_1_"></path>
            </g>
            <g id="Group-2" transform="translate(76.000000, 149.000000)" fill="#111111">
                <path d="M8.06896552,4.66359447 L8.06896552,22 C11.3793103,21.1696669 13.0344828,19.2265025 13.0344828,16.1705069 C13.0344828,13.1145113 13.0344828,9.27887385 13.0344828,4.66359447 C13.0344828,4.66359447 13.9827586,4.66359447 15.8793103,4.66359447 C17.7758621,4.66359447 19.4827586,3.10906298 21,0 C14.1206897,0 9.18965517,0 6.20689655,0 C3.22413793,0 1.15517241,1.55453149 0,4.66359447 L8.06896552,4.66359447 Z" id="Path-4"></path>
            </g>
            <g id="Group-5" transform="translate(13.000000, 49.000000)" stroke="#111111" stroke-linecap="round" stroke-linejoin="round" stroke-width="2">
                <polygon id="Path" points="7.44827586 0 0 11.3506494 7.44827586 15.8909091 14.8965517 11.3506494"></polygon>
                <polyline id="Path" points="14.4827586 16.7272727 7.65517241 23 0.827586207 16.7272727"></polyline>
            </g>
            <g id="Group-14" transform="translate(141.000000, 51.000000)" stroke="#111111" stroke-linecap="round" stroke-linejoin="round" stroke-width="2">
                <polygon id="Path-5" points="0 -7.10542736e-15 8.64864865 20 20 6.4 16.7567568 2.66666667"></polygon>
                <polyline id="Path-6" points="16.4864865 2.93333333 10 8 8.64864865 19.7333333"></polyline>
                <polyline id="Path-7" points="19.7297297 6.4 10.2702703 8 0.540540541 0.266666667"></polyline>
            </g>
            <g id="Group-7" transform="translate(10.000000, 115.000000)">
                <polygon id="Rectangle" stroke="#111111" stroke-width="2" stroke-linecap="round" stroke-linejoin="round" transform="translate(11.551220, 11.500000) rotate(45.000000) translate(-11.551220, -11.500000) " points="3.42621996 3.375 19.5888544 3.46236559 19.67622 19.625 3.51358555 19.5376344"></polygon>
                <path d="M19.4206341,11.5 L14.8738615,11.5 L11.55122,8.14124279 L8.22857841,11.5 L3.68180578,11.5 L11.55122,3.54504871 L19.4206341,11.5 Z" id="Combined-Shape" fill="#111111"></path>
            </g>
        </g>
    </g>
</svg>